<svg width="22" height="22" viewBox="0 0 22 22" fill="none" xmlns="http://www.w3.org/2000/svg">
<path d="M11 7.66667C11 6.55556 11.7933 5.44444 13.3811 5.44444C14.223 5.44444 15.0305 5.11 15.6258 4.51467C16.2211 3.91935 16.5556 3.11192 16.5556 2.27V1.55556M6.55556 7.66667V7.11111C6.55556 6.22706 6.90674 5.37921 7.53187 4.75409C8.15699 4.12897 9.00483 3.77778 9.88889 3.77778C10.4783 3.77778 11.0435 3.54365 11.4602 3.1269C11.877 2.71016 12.1111 2.14493 12.1111 1.55556V1M16.5556 10.5556V14.3333C16.5556 16.1014 15.8532 17.7971 14.6029 19.0474C13.3527 20.2976 11.657 21 9.88889 21H7.66667C5.89856 21 4.20286 20.2976 2.95262 19.0474C1.70238 17.7971 1 16.1014 1 14.3333V10.5556C1 10.3787 1.07024 10.2092 1.19526 10.0842C1.32029 9.95913 1.48986 9.88889 1.66667 9.88889H15.8889C16.0657 9.88889 16.2353 9.95913 16.3603 10.0842C16.4853 10.2092 16.5556 10.3787 16.5556 10.5556Z" stroke="#BD8B5F" stroke-width="1.5" stroke-linecap="round" stroke-linejoin="round"/>
<path d="M15.4444 9.88889H18.2222C18.9589 9.88889 19.6655 10.1815 20.1864 10.7025C20.7073 11.2234 21 11.93 21 12.6667C21 13.4034 20.7073 14.1099 20.1864 14.6308C19.6655 15.1518 18.9589 15.4444 18.2222 15.4444H16.5556" stroke="#BD8B5F" stroke-width="1.5" stroke-linecap="round" stroke-linejoin="round"/>
</svg>
