<svg width="158" height="26" viewBox="0 0 158 26" fill="none" xmlns="http://www.w3.org/2000/svg">
<path d="M40 7.66667C40 6.55556 40.7933 5.44444 42.3811 5.44444C43.223 5.44444 44.0305 5.11 44.6258 4.51467C45.2211 3.91935 45.5556 3.11192 45.5556 2.27V1.55556M35.5556 7.66667V7.11111C35.5556 6.22706 35.9067 5.37921 36.5319 4.75409C37.157 4.12897 38.0048 3.77778 38.8889 3.77778C39.4783 3.77778 40.0435 3.54365 40.4602 3.1269C40.877 2.71016 41.1111 2.14493 41.1111 1.55556V1M45.5556 10.5556V14.3333C45.5556 16.1014 44.8532 17.7971 43.6029 19.0474C42.3527 20.2976 40.657 21 38.8889 21H36.6667C34.8986 21 33.2029 20.2976 31.9526 19.0474C30.7024 17.7971 30 16.1014 30 14.3333V10.5556C30 10.3787 30.0702 10.2092 30.1953 10.0842C30.3203 9.95913 30.4899 9.88889 30.6667 9.88889H44.8889C45.0657 9.88889 45.2353 9.95913 45.3603 10.0842C45.4853 10.2092 45.5556 10.3787 45.5556 10.5556Z" stroke="#BD8B5F" stroke-width="1.5" stroke-linecap="round" stroke-linejoin="round"/>
<path d="M44.4444 9.88889H47.2222C47.9589 9.88889 48.6655 10.1815 49.1864 10.7025C49.7073 11.2234 50 11.93 50 12.6667C50 13.4034 49.7073 14.1099 49.1864 14.6308C48.6655 15.1518 47.9589 15.4444 47.2222 15.4444H45.5556" stroke="#BD8B5F" stroke-width="1.5" stroke-linecap="round" stroke-linejoin="round"/>
<path d="M6.64062 22L9.02699 7.45455H11.5838L9.19744 22H6.64062ZM0.15625 18.5341L0.589489 15.9773H12.1236L11.6903 18.5341H0.15625ZM1.52699 22L3.91335 7.45455H6.47017L4.08381 22H1.52699ZM0.987216 13.4773L1.42045 10.9205H12.9545L12.5213 13.4773H0.987216ZM14.2063 22V7.45455H20.2717C21.3607 7.45455 22.2721 7.60843 23.006 7.91619C23.7447 8.22396 24.2987 8.65483 24.668 9.20881C25.042 9.76278 25.229 10.4044 25.229 11.1335C25.229 11.6875 25.113 12.1823 24.881 12.6179C24.649 13.0488 24.3294 13.4062 23.9222 13.6903C23.515 13.9744 23.0439 14.1733 22.5089 14.2869V14.429C23.096 14.4574 23.6381 14.616 24.1353 14.9048C24.6372 15.1937 25.0397 15.5961 25.3427 16.1122C25.6457 16.6236 25.7972 17.2296 25.7972 17.9304C25.7972 18.7116 25.5984 19.41 25.2006 20.0256C24.8029 20.6364 24.2276 21.1193 23.4748 21.4744C22.7219 21.8248 21.8081 22 20.7333 22H14.2063ZM17.7219 19.1662H19.8952C20.6576 19.1662 21.2186 19.0218 21.5785 18.733C21.9431 18.4441 22.1254 18.0417 22.1254 17.5256C22.1254 17.1515 22.0378 16.8295 21.8626 16.5597C21.6874 16.285 21.4388 16.0743 21.1168 15.9276C20.7949 15.776 20.409 15.7003 19.9592 15.7003H17.7219V19.1662ZM17.7219 13.4347H19.668C20.0515 13.4347 20.3924 13.3707 20.6907 13.2429C20.989 13.1151 21.221 12.9304 21.3867 12.6889C21.5572 12.4474 21.6424 12.1562 21.6424 11.8153C21.6424 11.3277 21.4696 10.9441 21.1239 10.6648C20.7783 10.3854 20.3119 10.2457 19.7248 10.2457H17.7219V13.4347Z" fill="#BD8B5F"/>
<path d="M53.1009 22V7.45455H59.1094C60.1984 7.45455 61.1383 7.65104 61.929 8.04403C62.7244 8.43229 63.3376 8.991 63.7685 9.72017C64.1993 10.4446 64.4148 11.304 64.4148 12.2983C64.4148 13.3068 64.1946 14.1638 63.7543 14.8693C63.3139 15.5701 62.6889 16.1051 61.8793 16.4744C61.0696 16.839 60.1108 17.0213 59.0028 17.0213H55.2031V14.2514H58.3494C58.8797 14.2514 59.3224 14.1828 59.6776 14.0455C60.0374 13.9034 60.3097 13.6903 60.4943 13.4062C60.679 13.1174 60.7713 12.7481 60.7713 12.2983C60.7713 11.8485 60.679 11.4768 60.4943 11.1832C60.3097 10.8849 60.0374 10.6624 59.6776 10.5156C59.3177 10.3641 58.875 10.2884 58.3494 10.2884H56.6165V22H53.1009ZM61.2898 15.3523L64.9119 22H61.0767L57.5256 15.3523H61.2898ZM69.8587 7.45455V22H66.343V7.45455H69.8587ZM79.9279 11.8153C79.8806 11.2945 79.6699 10.8897 79.2958 10.6009C78.9265 10.3073 78.3986 10.1605 77.712 10.1605C77.2575 10.1605 76.8787 10.2197 76.5756 10.3381C76.2726 10.4564 76.0453 10.6198 75.8938 10.8281C75.7423 11.0317 75.6642 11.2661 75.6594 11.5312C75.65 11.7491 75.6926 11.9408 75.7873 12.1065C75.8867 12.2723 76.0288 12.419 76.2134 12.5469C76.4028 12.67 76.6301 12.7789 76.8952 12.8736C77.1604 12.9683 77.4587 13.0511 77.7901 13.1222L79.0401 13.4062C79.7598 13.5625 80.3943 13.7708 80.9435 14.0312C81.4975 14.2917 81.9615 14.6018 82.3356 14.9616C82.7144 15.3215 83.0008 15.7358 83.195 16.2045C83.3891 16.6733 83.4885 17.1989 83.4933 17.7812C83.4885 18.6998 83.2565 19.4882 82.7972 20.1463C82.3379 20.8045 81.6774 21.3087 80.8157 21.6591C79.9587 22.0095 78.9241 22.1847 77.712 22.1847C76.4951 22.1847 75.4345 22.0024 74.5302 21.6378C73.6258 21.2732 72.9227 20.7192 72.4208 19.9759C71.9189 19.2325 71.6609 18.2926 71.6467 17.1562H75.0131C75.0415 17.625 75.167 18.0156 75.3896 18.3281C75.6121 18.6406 75.9175 18.8774 76.3058 19.0384C76.6987 19.1993 77.1533 19.2798 77.6694 19.2798C78.1429 19.2798 78.5453 19.2159 78.8768 19.0881C79.213 18.9602 79.471 18.7827 79.6509 18.5554C79.8308 18.3281 79.9232 18.0677 79.9279 17.7741C79.9232 17.4995 79.838 17.2652 79.6722 17.071C79.5065 16.8722 79.2508 16.7017 78.9052 16.5597C78.5643 16.4129 78.1287 16.2779 77.5984 16.1548L76.0785 15.7997C74.819 15.5109 73.8271 15.0445 73.1026 14.4006C72.3782 13.7519 72.0183 12.8759 72.0231 11.7727C72.0183 10.8731 72.2598 10.0848 72.7475 9.40767C73.2352 8.73059 73.9099 8.20265 74.7717 7.82386C75.6334 7.44508 76.6159 7.25568 77.7191 7.25568C78.846 7.25568 79.8237 7.44744 80.6523 7.83097C81.4857 8.20975 82.132 8.74242 82.5913 9.42898C83.0505 10.1155 83.2849 10.911 83.2944 11.8153H79.9279ZM84.793 10.3097V7.45455H97.087V10.3097H92.6765V22H89.2106V10.3097H84.793ZM100.134 22H96.3555L101.263 7.45455H105.944L110.851 22H107.073L103.657 11.1193H103.543L100.134 22ZM99.6296 16.2756H107.527V18.946H99.6296V16.2756ZM116.714 22V7.45455H120.23V19.1449H126.281V22H116.714ZM131.616 7.45455V22H128.101V7.45455H131.616ZM133.824 22V7.45455H143.752V10.3097H137.339V13.2926H143.12V16.1548H137.339V22H133.824ZM145.523 22V7.45455H155.665V10.3097H149.038V13.2926H155.146V16.1548H149.038V19.1449H155.665V22H145.523Z" fill="#BD8B5F"/>
</svg>
